<?xml version="1.0" encoding="UTF-8" standalone="no"?>
<!DOCTYPE svg PUBLIC "-//W3C//DTD SVG 1.1//EN" "http://www.w3.org/Graphics/SVG/1.1/DTD/svg11.dtd">
<svg xmlns="http://www.w3.org/2000/svg" version="1.1" viewBox="0.00 0.00 296.00 167.00">
<path fill="#ffc416" d="
  M 146.10 34.23
  Q 148.66 39.42 151.09 44.43
  Q 153.60 49.62 152.65 55.06
  A 1.60 1.59 -82.8 0 1 150.96 56.38
  Q 149.77 56.29 149.13 55.29
  Q 141.84 43.87 135.69 32.94
  C 134.86 31.48 134.77 29.35 136.31 28.25
  Q 138.90 26.39 141.84 24.92
  Q 161.91 14.87 183.06 11.72
  C 187.49 11.06 188.33 14.73 188.71 18.74
  Q 189.46 26.47 190.20 34.37
  A 0.73 0.73 0.0 0 0 191.09 35.01
  C 196.66 33.75 207.01 33.21 208.93 40.08
  Q 211.38 48.85 202.55 51.39
  Q 197.72 52.78 191.76 53.64
  C 184.26 54.73 175.34 56.94 168.08 60.10
  Q 158.30 64.36 145.30 73.68
  A 1.69 1.69 0.0 0 1 143.31 73.67
  Q 142.61 73.15 142.77 72.41
  Q 143.29 70.06 145.09 68.36
  Q 153.73 60.20 162.09 56.05
  Q 177.74 48.29 195.99 46.17
  C 197.62 45.98 200.55 45.36 200.89 43.37
  C 201.76 38.29 189.96 41.66 187.61 42.45
  Q 184.71 43.42 183.81 40.79
  Q 182.97 38.33 182.68 35.64
  Q 181.98 29.18 180.98 22.04
  Q 180.84 21.05 180.52 20.09
  A 0.92 0.91 75.8 0 0 179.49 19.47
  C 169.27 21.30 160.31 25.45 150.53 30.47
  Q 148.07 31.74 146.32 33.21
  Q 145.81 33.64 146.10 34.23
  Z"
/>
<path fill="#f95705" d="
  M 133.99 82.39
  Q 133.03 82.40 133.62 83.15
  Q 138.11 88.86 141.14 94.04
  Q 141.73 95.05 141.92 96.24
  A 1.21 1.21 0.0 0 1 140.19 97.52
  Q 139.17 97.03 138.38 96.19
  C 135.18 92.83 125.71 83.30 127.45 78.44
  A 1.05 1.05 0.0 0 1 128.30 77.74
  L 131.73 77.23
  A 1.22 1.22 0.0 0 0 132.68 75.57
  Q 131.73 73.21 131.42 70.57
  Q 131.16 68.37 133.37 68.60
  L 134.85 68.75
  A 1.13 1.13 0.0 0 0 136.07 67.40
  Q 135.90 66.55 135.66 65.71
  C 134.81 62.64 138.03 61.27 140.08 63.33
  Q 141.38 64.64 142.35 66.10
  A 1.55 1.55 0.0 0 1 141.07 68.51
  L 140.47 68.51
  A 0.62 0.61 -6.8 0 0 139.87 69.26
  C 140.18 70.63 140.81 71.63 140.54 73.10
  Q 140.16 75.08 137.82 74.47
  Q 136.01 74.01 136.84 75.68
  Q 137.84 77.68 138.07 80.13
  A 2.05 2.04 -3.1 0 1 136.05 82.37
  L 133.99 82.39
  Z"
/>
<path fill="#ffffff" d="
  M 118.19 119.73
  C 109.19 128.31 95.78 132.44 83.39 134.34
  C 67.96 136.72 51.75 136.64 36.87 135.82
  C 33.69 135.64 29.45 134.58 26.91 132.45
  A 2.29 2.28 -41.0 0 1 27.17 128.76
  Q 29.38 127.39 32.51 127.51
  Q 56.57 128.43 72.43 125.93
  Q 87.16 123.61 101.84 116.85
  Q 111.50 112.41 109.28 102.96
  C 108.29 98.77 105.70 94.88 103.61 91.11
  C 100.99 86.37 93.29 72.08 100.68 69.02
  C 105.61 66.97 109.35 72.65 111.51 76.41
  C 116.10 84.42 120.00 93.99 123.65 102.98
  C 126.07 108.93 129.54 114.71 133.70 119.29
  C 139.15 125.28 146.21 117.57 149.83 113.83
  Q 151.97 111.61 154.75 110.41
  C 162.32 107.13 168.87 110.05 173.06 116.66
  C 175.28 120.15 178.79 125.80 183.46 123.83
  C 186.26 122.66 188.05 119.83 190.71 118.47
  C 195.64 115.96 199.89 119.46 204.23 122.85
  C 206.63 124.73 212.67 125.14 215.04 122.23
  C 219.47 116.78 212.20 105.13 209.02 100.32
  Q 203.92 92.59 199.27 85.19
  Q 197.32 82.09 196.72 78.67
  C 195.52 71.79 203.22 69.88 207.34 73.99
  Q 209.84 76.47 211.56 79.66
  Q 218.76 93.07 225.48 105.31
  C 230.92 115.21 230.66 126.88 220.05 132.99
  C 213.90 136.53 206.42 135.65 200.45 131.88
  C 197.41 129.95 194.45 129.21 191.22 131.56
  C 187.07 134.58 182.42 138.24 177.08 135.53
  C 171.59 132.75 169.56 126.17 164.06 123.63
  C 157.14 120.43 153.51 125.80 149.33 130.32
  Q 145.16 134.82 138.75 134.48
  C 129.39 133.98 122.88 127.80 118.74 119.82
  A 0.35 0.34 -35.4 0 0 118.19 119.73
  Z"
/>
<path fill="#ffffff" d="
  M 256.92 111.12
  C 258.26 114.19 260.51 121.16 258.58 123.65
  A 1.38 1.38 0.0 0 1 256.83 124.02
  Q 254.65 122.83 253.29 121.11
  C 249.94 116.88 246.78 112.30 243.35 108.16
  Q 232.45 94.97 222.29 82.65
  Q 220.06 79.94 220.07 76.51
  Q 220.07 73.44 222.81 71.72
  C 227.50 68.76 232.61 71.62 235.63 75.57
  Q 249.10 93.21 256.92 111.12
  Z"
/>
<path fill="#f95705" d="
  M 152.59 78.29
  C 148.81 81.88 147.52 85.92 147.23 91.12
  Q 147.20 91.72 146.59 91.71
  Q 145.35 91.67 145.11 90.36
  Q 143.60 81.87 148.14 74.55
  Q 149.82 71.84 152.94 72.65
  A 1.35 1.31 85.2 0 1 153.84 73.43
  Q 154.93 76.06 152.59 78.29
  Z"
/>
<path fill="#ffffff" d="
  M 72.78 104.85
  L 69.66 102.51
  Q 69.34 102.26 69.19 101.89
  Q 68.54 100.25 69.80 98.97
  C 72.85 95.85 82.34 85.96 87.23 91.28
  C 88.85 93.05 87.41 95.23 85.67 96.06
  Q 83.37 97.16 81.52 98.81
  A 1.96 1.95 -45.9 0 0 81.56 101.77
  C 84.85 104.53 83.88 107.31 80.54 109.15
  C 74.36 112.54 63.22 115.04 55.85 112.36
  A 0.72 0.72 0.0 0 1 55.62 111.14
  Q 55.97 110.82 56.46 110.75
  Q 63.65 109.65 70.27 107.69
  Q 71.93 107.19 72.93 105.83
  A 0.71 0.70 -54.0 0 0 72.78 104.85
  Z"
/>
<path fill="#ffffff" d="
  M 266.0881 123.9302
  A 3.50 3.31 96.1 0 1 263.1687 120.0983
  A 3.50 3.31 96.1 0 1 266.8319 116.9698
  A 3.50 3.31 96.1 0 1 269.7513 120.8017
  A 3.50 3.31 96.1 0 1 266.0881 123.9302
  Z
  M 266.3595 123.2282
  A 2.88 2.57 92.0 0 0 269.0284 120.4397
  A 2.88 2.57 92.0 0 0 266.5605 117.4718
  A 2.88 2.57 92.0 0 0 263.8916 120.2603
  A 2.88 2.57 92.0 0 0 266.3595 123.2282
  Z"
/>
<path fill="#ffffff" d="
  M 267.01 118.76
  Q 265.99 118.92 265.86 119.62
  Q 265.75 120.21 266.35 120.27
  Q 266.86 120.32 267.05 119.74
  Q 267.25 119.10 267.01 118.76
  Q 267.42 118.67 267.68 118.98
  Q 267.99 119.35 267.83 119.82
  Q 267.60 120.50 267.63 121.21
  Q 267.67 122.02 267.09 121.45
  Q 266.45 120.80 265.72 121.36
  Q 264.95 121.95 265.10 120.99
  L 265.33 119.40
  Q 265.44 118.65 266.15 118.39
  Q 266.62 118.21 267.01 118.76
  Z"
/>
<path fill="#ffffff" d="
  M 153.39 136.55
  Q 154.48 130.64 160.21 130.76
  C 167.74 130.93 168.88 141.89 161.11 142.96
  A 0.61 0.60 82.7 0 0 160.60 143.63
  C 161.51 150.58 152.86 153.96 148.08 149.64
  C 143.10 145.12 146.04 137.28 152.71 137.13
  Q 153.29 137.11 153.39 136.55
  Z"
/>
<circle fill="#ffffff" cx="194.23" cy="143.85" r="6.56"/>
</svg>
